<?xml version="1.0" encoding="UTF-8"?><!DOCTYPE svg PUBLIC "-//W3C//DTD SVG 1.1//EN" "http://www.w3.org/Graphics/SVG/1.1/DTD/svg11.dtd"><svg xmlns="http://www.w3.org/2000/svg" xmlns:xlink="http://www.w3.org/1999/xlink" width="32" height="32" viewBox="0 0 32 32" fill="#000"><path d="M16 32c8.836 0 16-7.164 16-16S24.836 0 16 0 0 7.164 0 16s7.164 16 16 16zm0-28c3.982 0 8 2.28 8 7.376 0 2.966-1.47 5.282-4.368 6.876C18.792 18.714 18 19.628 18 20a2 2 0 0 1-4 0c0-2.538 2.328-4.496 3.704-5.252C19.726 13.632 20 12.416 20 11.376 20 8.438 17.494 8 16 8c-1.926 0-4 1.264-4 4.042a2 2 0 0 1-4 0C8 6.818 12.122 4 16 4zm0 24.088a2.06 2.06 0 1 1 0-4.12 2.06 2.06 0 0 1 0 4.12z"/><metadata><rdf:RDF xmlns:rdf="http://www.w3.org/1999/02/22-rdf-syntax-ns#" xmlns:rdfs="http://www.w3.org/2000/01/rdf-schema#" xmlns:dc="http://purl.org/dc/elements/1.1/"><rdf:Description about="https://iconscout.com/legal#licenses" dc:title="question,alt" dc:description="question,alt" dc:publisher="Iconscout" dc:date="2017-09-25" dc:format="image/svg+xml" dc:language="en"><dc:creator><rdf:Bag><rdf:li>Elegant Themes</rdf:li></rdf:Bag></dc:creator></rdf:Description></rdf:RDF></metadata></svg>