<?xml version="1.0" encoding="UTF-8" standalone="no"?>
<!-- Created with Inkscape (http://www.inkscape.org/) -->

<svg
   xmlns:dc="http://purl.org/dc/elements/1.1/"
   xmlns:cc="http://creativecommons.org/ns#"
   xmlns:rdf="http://www.w3.org/1999/02/22-rdf-syntax-ns#"
   xmlns:svg="http://www.w3.org/2000/svg"
   xmlns="http://www.w3.org/2000/svg"
   xmlns:sodipodi="http://sodipodi.sourceforge.net/DTD/sodipodi-0.dtd"
   xmlns:inkscape="http://www.inkscape.org/namespaces/inkscape"
   width="8.4666662mm"
   height="8.4666662mm"
   viewBox="0 0 8.4666662 8.4666662"
   version="1.1"
   id="svg4576"
   inkscape:version="0.92.3 (2405546, 2018-03-11)"
   sodipodi:docname="help.svg">
  <defs
     id="defs4570" />
  <sodipodi:namedview
     id="base"
     pagecolor="#ffffff"
     bordercolor="#666666"
     borderopacity="1.0"
     inkscape:pageopacity="0.0"
     inkscape:pageshadow="2"
     inkscape:zoom="2.8"
     inkscape:cx="91.301374"
     inkscape:cy="-28.527133"
     inkscape:document-units="mm"
     inkscape:current-layer="layer1"
     showgrid="false"
     inkscape:window-width="1366"
     inkscape:window-height="705"
     inkscape:window-x="-8"
     inkscape:window-y="-8"
     inkscape:window-maximized="1" />
  <metadata
     id="metadata4573">
    <rdf:RDF>
      <cc:Work
         rdf:about="">
        <dc:format>image/svg+xml</dc:format>
        <dc:type
           rdf:resource="http://purl.org/dc/dcmitype/StillImage" />
        <dc:title></dc:title>
      </cc:Work>
    </rdf:RDF>
  </metadata>
  <g
     inkscape:label="Layer 1"
     inkscape:groupmode="layer"
     id="layer1"
     transform="translate(-118.9869,-130.2369)">
    <g
       style="fill:#a7a7a7;fill-opacity:1"
       id="g4589"
       transform="matrix(0.26458333,0,0,0.26458333,118.9869,130.2369)">
      <path
         id="path4578"
         d="M 16,32 C 24.836,32 32,24.836 32,16 32,7.164 24.836,0 16,0 7.164,0 0,7.164 0,16 0,24.836 7.164,32 16,32 Z M 16,4 c 3.982,0 8,2.28 8,7.376 0,2.966 -1.47,5.282 -4.368,6.876 C 18.792,18.714 18,19.628 18,20 a 2,2 0 0 1 -4,0 c 0,-2.538 2.328,-4.496 3.704,-5.252 C 19.726,13.632 20,12.416 20,11.376 20,8.438 17.494,8 16,8 14.074,8 12,9.264 12,12.042 a 2,2 0 0 1 -4,0 C 8,6.818 12.122,4 16,4 Z m 0,24.088 a 2.06,2.06 0 1 1 0,-4.12 2.06,2.06 0 0 1 0,4.12 z"
         inkscape:connector-curvature="0"
         style="fill:#a7a7a7;fill-opacity:1" />
    </g>
  </g>
</svg>
