<?xml version="1.0" encoding="UTF-8" standalone="no"?>
<!-- Created with Inkscape (http://www.inkscape.org/) -->

<svg
   xmlns:dc="http://purl.org/dc/elements/1.1/"
   xmlns:cc="http://creativecommons.org/ns#"
   xmlns:rdf="http://www.w3.org/1999/02/22-rdf-syntax-ns#"
   xmlns:svg="http://www.w3.org/2000/svg"
   xmlns="http://www.w3.org/2000/svg"
   xmlns:sodipodi="http://sodipodi.sourceforge.net/DTD/sodipodi-0.dtd"
   xmlns:inkscape="http://www.inkscape.org/namespaces/inkscape"
   width="85.178261mm"
   height="9.7926836mm"
   viewBox="0 0 85.178261 9.7926836"
   version="1.1"
   id="svg8"
   inkscape:version="0.92.3 (2405546, 2018-03-11)"
   sodipodi:docname="logoname.svg">
  <defs
     id="defs2" />
  <sodipodi:namedview
     id="base"
     pagecolor="#ffffff"
     bordercolor="#666666"
     borderopacity="1.0"
     inkscape:pageopacity="0.0"
     inkscape:pageshadow="2"
     inkscape:zoom="1.4"
     inkscape:cx="12.826757"
     inkscape:cy="46.006505"
     inkscape:document-units="mm"
     inkscape:current-layer="layer1"
     showgrid="false"
     inkscape:window-width="1366"
     inkscape:window-height="705"
     inkscape:window-x="-8"
     inkscape:window-y="-8"
     inkscape:window-maximized="1" />
  <metadata
     id="metadata5">
    <rdf:RDF>
      <cc:Work
         rdf:about="">
        <dc:format>image/svg+xml</dc:format>
        <dc:type
           rdf:resource="http://purl.org/dc/dcmitype/StillImage" />
        <dc:title />
      </cc:Work>
    </rdf:RDF>
  </metadata>
  <g
     inkscape:label="Layer 1"
     inkscape:groupmode="layer"
     id="layer1"
     transform="translate(-15.620235,-122.32948)">
    <g
       aria-label="CompareTheBrew"
       transform="scale(0.26458333)"
       style="font-style:normal;font-variant:normal;font-weight:normal;font-stretch:normal;font-size:40px;line-height:1.25;font-family:'Louis George Caf';-inkscape-font-specification:'Louis George Caf';letter-spacing:0px;word-spacing:0px;fill:#cda20b;fill-opacity:1;stroke:none"
       id="flowRoot815">
      <path
         d="m 59.037109,476.70312 v -0.11718 q 0,-5.41016 3.632813,-9.70703 4.21875,-4.53125 9.863281,-4.53125 h 0.03906 q 5.527343,0 9.667968,4.29687 1.464844,1.67969 2.070313,2.89063 -0.15625,0.13671 -3.300781,1.8164 -0.527344,-0.95703 -1.582032,-2.20703 -3.027343,-3.04687 -6.855468,-3.04687 -3.886719,0 -6.894532,3.08593 -2.890625,3.26172 -2.890625,7.44141 0,4.84375 3.691407,8.26172 2.792968,2.26562 5.917968,2.26562 h 0.410157 q 3.4375,0 6.425781,-2.83203 1.269531,-1.40625 1.796875,-2.4414 l 3.300781,1.73828 v 0.0781 q -0.664062,1.23047 -1.757812,2.59766 -4.257813,4.64844 -10,4.64844 -5.703125,0 -9.960938,-4.57032 -3.574219,-4.3164 -3.574219,-9.66797 z"
         style="fill:#cda20b;fill-opacity:1"
         id="path839" />
      <path
         d="m 87.416016,481.82031 v -0.29297 q 0,-2.1875 1.09375,-4.39453 0.3125,-0.60547 0.742187,-1.23047 0.332031,-0.46875 0.996094,-1.1914 0.957031,-0.87891 1.367187,-1.13282 2.402344,-1.64062 5.253907,-1.64062 3.183589,0 5.820309,2.05078 0.3711,0.27344 1.05469,0.97656 1.34766,1.50391 1.91406,3.08594 0.6836,1.75781 0.6836,3.65234 0,2.46094 -1.19141,4.72657 -0.41016,0.74218 -1.11328,1.62109 -0.76172,0.87891 -1.23047,1.23047 -0.52734,0.42969 -0.99609,0.72266 -2.324222,1.40625 -4.843753,1.40625 h -0.175781 q -2.65625,0 -5.097657,-1.5625 -0.46875,-0.35157 -0.839843,-0.66407 -0.761719,-0.64453 -1.09375,-1.09375 -0.410157,-0.46875 -0.761719,-1.01562 -0.390625,-0.625 -0.664063,-1.21094 -0.917968,-2.03125 -0.917968,-4.04297 z m 3.769531,-0.11719 q 0,2.12891 1.386719,3.86719 0.605468,0.6836 0.9375,0.89844 1.542968,1.17187 3.359375,1.17187 2.226562,0 3.945309,-1.67968 0.6836,-0.72266 0.95703,-1.25 0.80079,-1.44532 0.80079,-2.98828 v -0.0586 q 0,-2.24609 -1.54297,-4.04297 -0.66407,-0.70312 -0.89844,-0.80078 -0.332032,-0.27344 -0.625001,-0.42969 -1.269531,-0.68359 -2.636718,-0.68359 -2.070313,0 -3.789063,1.54297 -0.605469,0.60547 -0.761719,0.89844 -1.132812,1.58203 -1.132812,3.55468 z"
         style="fill:#cda20b;fill-opacity:1"
         id="path841" />
      <path
         d="m 111.06836,490.88281 v -18.49609 l 0.0586,-0.0586 h 3.65235 l 0.0586,0.0586 v 1.05469 h 0.0195 q 0.9961,-0.54688 2.61719,-1.01563 0.83984,-0.19531 2.08984,-0.19531 h 0.17578 q 3.78907,0 6.11329,2.28515 2.22656,-2.28515 6.13281,-2.28515 h 0.60547 q 5.15625,0 7.30468,3.88672 0.70313,1.52343 0.70313,3.00781 v 11.75781 l -0.0391,0.0586 h -3.67188 l -0.0391,-0.0586 v -11.71875 q 0,-2.10937 -2.34375,-2.91015 Q 133.7832,476 132.66992,476 h -0.76172 q -3.04687,0 -3.94531,2.03125 -0.23437,0.54687 -0.23437,1.23047 v 11.62109 l -0.0391,0.0586 h -3.67187 l -0.0391,-0.0586 v -11.28906 q 0,-2.08984 -1.34766,-2.85156 Q 121.5957,476 119.81836,476 h -0.3125 q -2.38281,0 -3.37891,0.74219 -1.28906,0.78125 -1.28906,2.89062 v 11.25 l -0.0586,0.0586 h -3.65235 z"
         style="fill:#cda20b;fill-opacity:1"
         id="path843" />
      <path
         d="m 146.45898,499.33984 v -27.01172 l 0.0195,-0.0195 h 3.75 v 2.05078 q 0.70312,-0.74218 0.8789,-0.83984 0.58594,-0.44922 1.01563,-0.68359 0.60547,-0.33203 1.21093,-0.50782 0.44922,-0.13671 1.5625,-0.33203 0.35157,-0.0195 0.83985,-0.0391 2.83203,0 5.07812,1.38672 0.60547,0.35156 1.46485,1.13281 0.72265,0.72266 0.91797,0.9961 0.46875,0.60546 0.83984,1.1914 1.32812,2.34375 1.32812,5.0586 0,3.22265 -1.99218,5.95703 -0.25391,0.37109 -1.01563,1.17187 l -0.35156,0.29297 q -2.73438,2.28516 -6.11328,2.28516 -2.46094,0 -4.45313,-1.40625 -0.37109,-0.25391 -1.01562,-0.85938 l -0.19531,-0.21484 v 10.41015 h -3.75 z m 3.76954,-17.24609 q 0,0.54687 0.29296,1.58203 0.23438,0.64453 0.50782,1.15234 0.29297,0.42969 0.83984,1.05469 0.60547,0.60547 0.83984,0.74219 0.46875,0.3125 0.82032,0.50781 1.23047,0.52735 2.20703,0.52735 h 0.2539 q 1.73829,0 3.28125,-1.17188 0.27344,-0.19531 0.78125,-0.72266 0.9375,-1.09375 1.26954,-2.26562 0.27343,-0.89844 0.27343,-1.81641 0,-2.22656 -1.46484,-3.98437 -0.625,-0.66406 -0.76172,-0.74219 -1.5625,-1.23047 -3.45703,-1.23047 h -0.15625 q -1.03516,0 -2.26563,0.54688 -0.60546,0.27343 -1.34765,0.9375 -0.70313,0.70312 -0.85938,0.99609 -0.29297,0.44922 -0.46875,0.80078 -0.17578,0.3711 -0.39062,0.97656 -0.19531,0.89844 -0.19531,1.32813 z"
         style="fill:#cda20b;fill-opacity:1"
         id="path845" />
      <path
         d="m 169.01758,481.68359 v -0.0195 q 0,-4.29687 3.32031,-7.42187 2.75391,-2.30469 6.23047,-2.30469 3.26172,0 5.58594,2.48047 v -2.14844 l 0.0586,-0.0391 h 3.69141 l 0.0391,0.0391 v 18.63281 l -0.0391,0.0391 h -3.69141 l -0.0586,-0.0391 v -1.89453 q -2.1875,2.40235 -5.625,2.40235 h -0.0195 q -4.27735,0 -7.26563,-3.45704 -2.22656,-2.79296 -2.22656,-6.26953 z m 3.76953,-0.0195 q 0,3.08594 2.65625,5.0586 1.48437,0.89843 2.8125,0.89843 h 0.42969 q 1.875,0 3.63281,-1.52343 1.83594,-1.875 1.83594,-4.41407 v -0.0195 q 0,-3.125 -2.65625,-5.03906 -1.46485,-0.89844 -2.89063,-0.89844 h -0.3125 q -2.34375,0 -4.23828,2.16797 -1.26953,1.79688 -1.26953,3.76953 z"
         style="fill:#cda20b;fill-opacity:1"
         id="path847" />
      <path
         d="m 193.88086,490.86328 v -18.33984 l 0.0586,-0.0391 h 3.65235 l 0.0391,0.0391 v 1.40625 q 2.14844,-1.81641 4.41406,-1.81641 h 0.48828 q 1.9336,0 4.00391,1.13281 v 0.0195 q -0.82031,3.71094 -0.89844,3.88672 -1.875,-1.23047 -3.32031,-1.23047 h -0.3125 q -1.875,0 -3.30078,1.38672 -1.07422,1.3086 -1.07422,4.96094 v 8.59375 l -0.0391,0.0586 h -3.65235 z"
         style="fill:#cda20b;fill-opacity:1"
         id="path849" />
      <path
         d="m 208.5293,481.72266 v -0.0781 q 0,-4.57031 3.49609,-7.73437 2.57813,-1.97266 5.17578,-1.97266 h 0.56641 q 2.85156,0 5.48828,2.28516 1.28906,1.26953 1.77734,2.1875 1.42578,2.51953 1.42578,5.27343 v 0.58594 q 0,0.54688 -0.0781,0.54688 h -13.98438 q 0.44922,2.08984 1.48438,3.125 1.58203,1.69921 3.59375,1.69921 2.53906,0 4.25781,-2.55859 0.33203,-0.64453 0.39063,-0.66406 3.35937,1.52344 3.39843,1.5625 -0.27343,0.68359 -1.23046,2.05078 -2.8711,3.37891 -6.77735,3.37891 h -0.0781 q -4.02344,0 -6.91407,-3.57422 -1.99218,-2.79297 -1.99218,-6.11328 z m 4.21875,-2.46094 h 9.47265 v -0.0195 q -0.33203,-0.9961 -1.52343,-2.26563 -1.48438,-1.26953 -3.24219,-1.26953 -2.67578,0 -4.39453,2.83203 z"
         style="fill:#cda20b;fill-opacity:1"
         id="path851" />
      <path
         d="m 228.37305,466.09766 v -3.73047 l 0.0195,-0.0195 h 18.94531 l 0.0195,0.0195 v 3.73047 l -0.0195,0.0195 h -7.57812 v 24.80468 l -0.0195,0.0195 h -3.75 l -0.0195,-0.0195 v -24.80468 h -7.57812 z"
         style="fill:#cda20b;fill-opacity:1"
         id="path853" />
      <path
         d="m 250.67773,490.94141 v -28.59375 h 3.76954 v 11.09375 h 0.0195 q 0.99609,-0.54688 2.61718,-1.01563 0.83985,-0.19531 2.08985,-0.19531 h 0.17578 q 5.03906,0 7.22656,3.80859 0.76172,1.50391 0.76172,3.53516 v 11.30859 l -0.0391,0.0586 h -3.67188 l -0.0391,-0.0586 v -11.34765 q 0,-2.40235 -2.01172,-3.16407 Q 260.73633,476 259.42773,476 h -0.3125 q -2.38281,0 -3.3789,0.74219 -1.28906,0.78125 -1.28906,2.89062 v 11.3086 z"
         style="fill:#cda20b;fill-opacity:1"
         id="path855" />
      <path
         d="m 271.57617,481.72266 v -0.0781 q 0,-4.57031 3.4961,-7.73437 2.57812,-1.97266 5.17578,-1.97266 h 0.5664 q 2.85157,0 5.48828,2.28516 1.28907,1.26953 1.77735,2.1875 1.42578,2.51953 1.42578,5.27343 v 0.58594 q 0,0.54688 -0.0781,0.54688 h -13.98437 q 0.44922,2.08984 1.48437,3.125 1.58204,1.69921 3.59375,1.69921 2.53907,0 4.25782,-2.55859 0.33203,-0.64453 0.39062,-0.66406 3.35938,1.52344 3.39844,1.5625 -0.27344,0.68359 -1.23047,2.05078 -2.87109,3.37891 -6.77734,3.37891 h -0.0781 q -4.02344,0 -6.91406,-3.57422 -1.99219,-2.79297 -1.99219,-6.11328 z m 4.21875,-2.46094 h 9.47266 v -0.0195 q -0.33203,-0.9961 -1.52344,-2.26563 -1.48437,-1.26953 -3.24219,-1.26953 -2.67578,0 -4.39453,2.83203 z"
         style="fill:#cda20b;fill-opacity:1"
         id="path857" />
      <path
         d="m 294.48633,490.88281 v -28.47656 l 0.0586,-0.0586 h 9.45313 q 4.55078,0 7.24609,3.0664 1.44531,1.81641 1.44531,4.29688 v 0.41015 q 0,3.26172 -2.5,5.54688 v 0.0391 q 0.56641,0.27344 1.5625,1.25 1.85547,2.05078 1.85547,4.64844 v 1.40625 q 0,4.02344 -3.61328,6.52344 -1.83594,0.97656 -2.28516,0.97656 -1.21093,0.42969 -3.49609,0.42969 h -9.66797 z m 3.75,-3.73047 h 6.5039 q 3.35938,0 4.72657,-2.46093 0.39062,-0.82032 0.39062,-2.07032 v -0.68359 q 0,-2.55859 -2.61719,-3.49609 -1.26953,-0.54688 -3.10546,-0.54688 h -5.83985 l -0.0586,0.0586 z m 0.0391,-13.00781 h 5.44922 q 3.4375,0 4.86328,-2.44141 0.33203,-0.70312 0.33203,-1.34765 v -0.87891 q 0,-2.14844 -3.00781,-3.10547 -0.87891,-0.27343 -2.48047,-0.27343 h -5.15625 z"
         style="fill:#cda20b;fill-opacity:1"
         id="path859" />
      <path
         d="m 318.33398,490.86328 v -18.33984 l 0.0586,-0.0391 h 3.65234 l 0.0391,0.0391 v 1.40625 q 2.14844,-1.81641 4.41407,-1.81641 h 0.48828 q 1.93359,0 4.0039,1.13281 v 0.0195 q -0.82031,3.71094 -0.89843,3.88672 -1.875,-1.23047 -3.32032,-1.23047 h -0.3125 q -1.875,0 -3.30078,1.38672 -1.07422,1.3086 -1.07422,4.96094 v 8.59375 l -0.0391,0.0586 h -3.65234 z"
         style="fill:#cda20b;fill-opacity:1"
         id="path861" />
      <path
         d="m 332.98242,481.72266 v -0.0781 q 0,-4.57031 3.4961,-7.73437 2.57812,-1.97266 5.17578,-1.97266 h 0.5664 q 2.85157,0 5.48828,2.28516 1.28907,1.26953 1.77735,2.1875 1.42578,2.51953 1.42578,5.27343 v 0.58594 q 0,0.54688 -0.0781,0.54688 h -13.98437 q 0.44922,2.08984 1.48437,3.125 1.58204,1.69921 3.59375,1.69921 2.53907,0 4.25782,-2.55859 0.33203,-0.64453 0.39062,-0.66406 3.35938,1.52344 3.39844,1.5625 -0.27344,0.68359 -1.23047,2.05078 -2.87109,3.37891 -6.77734,3.37891 h -0.0781 q -4.02344,0 -6.91406,-3.57422 -1.99219,-2.79297 -1.99219,-6.11328 z m 4.21875,-2.46094 h 9.47266 v -0.0195 q -0.33203,-0.9961 -1.52344,-2.26563 -1.48437,-1.26953 -3.24219,-1.26953 -2.67578,0 -4.39453,2.83203 z"
         style="fill:#cda20b;fill-opacity:1"
         id="path863" />
      <path
         d="m 353.56836,472.23047 h 4.16016 q 0.0195,0 0.46875,1.36719 l 3.08593,9.29687 0.52735,1.5625 2.7539,-8.88672 1.03516,-3.33984 h 3.33984 q 0.0195,0 0.0977,0.33203 l 2.63672,8.45703 1.05469,3.4375 q 0.0391,0 0.48828,-1.36719 l 3.02734,-9.19922 0.56641,-1.66015 h 4.16015 v 0.0195 l -3.10547,9.10156 -2.89062,8.41797 -0.39063,1.17188 h -3.75 q -0.0391,0 -0.17578,-0.54688 -0.83984,-2.59766 -1.58203,-5.03906 l -1.77734,-5.74219 h -0.0195 l -2.65625,8.49609 -0.87891,2.83204 h -3.76953 q -0.0195,0 -0.35156,-1.03516 l -2.77344,-8.08594 -2.96875,-8.63281 z"
         style="fill:#cda20b;fill-opacity:1"
         id="path865" />
    </g>
  </g>
</svg>
