<?xml version="1.0" encoding="UTF-8" standalone="no"?>
<svg
   xmlns:dc="http://purl.org/dc/elements/1.1/"
   xmlns:cc="http://creativecommons.org/ns#"
   xmlns:rdf="http://www.w3.org/1999/02/22-rdf-syntax-ns#"
   xmlns:svg="http://www.w3.org/2000/svg"
   xmlns="http://www.w3.org/2000/svg"
   xmlns:sodipodi="http://sodipodi.sourceforge.net/DTD/sodipodi-0.dtd"
   xmlns:inkscape="http://www.inkscape.org/namespaces/inkscape"
   id="svg8"
   version="1.1"
   viewBox="0 0 7.7566323 32.49931"
   height="32.49931mm"
   width="7.7566323mm"
   sodipodi:docname="score.svg"
   inkscape:version="0.92.3 (2405546, 2018-03-11)">
  <sodipodi:namedview
     pagecolor="#ffffff"
     bordercolor="#666666"
     borderopacity="1"
     objecttolerance="10"
     gridtolerance="10"
     guidetolerance="10"
     inkscape:pageopacity="0"
     inkscape:pageshadow="2"
     inkscape:window-width="1366"
     inkscape:window-height="705"
     id="namedview822"
     showgrid="false"
     inkscape:zoom="4.3636824"
     inkscape:cx="14.658203"
     inkscape:cy="61.416018"
     inkscape:window-x="-8"
     inkscape:window-y="-8"
     inkscape:window-maximized="1"
     inkscape:current-layer="layer1" />
  <defs
     id="defs2" />
  <metadata
     id="metadata5">
    <rdf:RDF>
      <cc:Work
         rdf:about="">
        <dc:format>image/svg+xml</dc:format>
        <dc:type
           rdf:resource="http://purl.org/dc/dcmitype/StillImage" />
        <dc:title />
      </cc:Work>
    </rdf:RDF>
  </metadata>
  <g
     transform="translate(-45.85584,-103.00626)"
     id="layer1">
    <g
       aria-label="SCORE"
       transform="rotate(90)"
       style="font-style:normal;font-variant:normal;font-weight:normal;font-stretch:normal;font-size:10.58333302px;line-height:1.25;font-family:'Louis George Caf';-inkscape-font-specification:'Louis George Caf';letter-spacing:0px;word-spacing:0px;fill:#000000;fill-opacity:1;stroke:none;stroke-width:0.26458332"
       id="text843">
      <path
         d="m 103.00626,-47.535325 0.90434,-0.418579 q 0.0827,0.186035 0.22738,0.382405 0.0672,0.09819 0.2067,0.232544 0.20154,0.180868 0.32556,0.248047 0.41858,0.232544 0.8785,0.232544 h 0.0362 q 0.45992,0 0.87849,-0.227376 0.11369,-0.06718 0.23772,-0.1757 0.13952,-0.139527 0.2067,-0.253215 0.1757,-0.304891 0.1757,-0.630452 0,-0.5271 -0.44442,-0.847494 -0.12919,-0.08268 -0.23254,-0.124023 -0.18087,-0.08268 -0.56327,-0.155029 -1.08521,-0.248047 -1.5813,-0.506429 -1.09554,-0.542603 -1.09554,-1.643311 0,-0.733805 0.48059,-1.333252 0.15503,-0.186035 0.33073,-0.325561 0.21187,-0.160197 0.37207,-0.24288 0.1757,-0.09302 0.42375,-0.170532 0.40307,-0.118856 0.80615,-0.118856 h 0.0878 q 0.58911,0 1.15755,0.284221 0.18087,0.09818 0.35657,0.227376 0.0879,0.06201 0.27905,0.237712 0.20154,0.217041 0.28939,0.351399 0.0775,0.113689 0.13952,0.227377 l -0.89917,0.444417 q -0.0413,-0.09302 -0.19637,-0.268717 -0.47542,-0.506429 -1.17822,-0.506429 -0.69246,0 -1.12138,0.408243 -0.16019,0.1757 -0.20154,0.279053 -0.12402,0.237712 -0.12402,0.490926 v 0.03617 q 0,0.356567 0.26355,0.552937 0.11886,0.09302 0.22738,0.149862 0.26871,0.144694 0.79581,0.294556 0.39274,0.113688 0.94568,0.232544 0.31006,0.08785 0.51677,0.186035 0.20154,0.09819 0.41858,0.26355 0.1912,0.160197 0.33589,0.341064 0.40825,0.552938 0.40825,1.224732 v 0.02584 q 0,0.661458 -0.39791,1.255737 -0.0672,0.10852 -0.24288,0.294556 -0.23771,0.217041 -0.39274,0.310058 -0.16537,0.103353 -0.36174,0.186035 -0.5426,0.227377 -1.12138,0.227377 -0.894,0 -1.63814,-0.5271 -0.13436,-0.103353 -0.27905,-0.237711 -0.20671,-0.206706 -0.28939,-0.320394 -0.1602,-0.217041 -0.24805,-0.382406 -0.093,-0.1757 -0.10335,-0.211873 z"
         style="stroke-width:0.26458332"
         id="path4546" />
      <path
         d="m 108.96972,-49.726406 v -0.03101 q 0,-1.431437 0.96118,-2.568318 1.11621,-1.198894 2.60966,-1.198894 h 0.0103 q 1.46244,0 2.55798,1.136882 0.38757,0.444417 0.54777,0.764811 -0.0413,0.03617 -0.87333,0.480591 -0.13953,-0.253215 -0.41858,-0.583944 -0.80098,-0.806152 -1.81384,-0.806152 -1.02836,0 -1.82418,0.816487 -0.76481,0.862997 -0.76481,1.968872 0,1.281576 0.97668,2.185913 0.73898,0.599447 1.5658,0.599447 h 0.10852 q 0.90951,0 1.70015,-0.749308 0.3359,-0.37207 0.47543,-0.645956 l 0.87333,0.459921 v 0.02067 q -0.1757,0.325562 -0.46509,0.687297 -1.12654,1.229899 -2.64583,1.229899 -1.50895,0 -2.6355,-1.209229 -0.94568,-1.142049 -0.94568,-2.557983 z"
         style="stroke-width:0.26458332"
         id="path4548" />
      <path
         d="m 116.52482,-49.736741 v -0.02067 q 0,-1.601969 1.19889,-2.800862 l 0.34623,-0.284221 q 0.96635,-0.682129 2.08256,-0.682129 h 0.0155 q 1.49862,0 2.63033,1.173055 1.00253,1.147217 1.00253,2.60966 0,1.601969 -1.18339,2.795695 -1.10071,0.98702 -2.44947,0.98702 -1.35392,0 -2.43912,-0.966349 -0.48059,-0.496094 -0.62012,-0.764812 -0.58394,-0.945678 -0.58394,-2.046386 z m 0.99218,-0.01034 q 0,1.224732 0.93018,2.123902 0.76481,0.661458 1.72082,0.661458 1.24024,0 2.0929,-1.09554 0.53743,-0.785482 0.53743,-1.643311 v -0.06718 q 0,-1.059367 -0.73897,-1.912028 -0.82682,-0.852661 -1.89136,-0.852661 -1.19372,0 -2.04638,1.018026 -0.60462,0.816487 -0.60462,1.767333 z"
         style="stroke-width:0.26458332"
         id="path4550" />
      <path
         d="m 125.14961,-45.974697 v -7.534424 l 0.0155,-0.0155 h 2.49081 q 1.19889,0 2.03605,0.89917 0.59428,0.72347 0.59428,1.591634 0,1.064535 -0.85266,1.839681 -0.45992,0.372071 -0.80616,0.475423 0,0.02584 1.01286,1.751831 l 0.57878,0.992188 -0.0103,0.01033 h -1.17305 q -0.0207,0 -0.28422,-0.496094 -1.09554,-1.922363 -1.17306,-2.08256 h -1.4366 v 2.568319 l -0.0103,0.0155 h -0.96635 z m 0.99219,-3.570841 h 1.56063 q 0.74414,0 1.28157,-0.61495 0.29973,-0.413411 0.29973,-0.842326 v -0.06718 q 0,-0.676961 -0.65113,-1.16272 -0.40307,-0.299723 -1.12138,-0.299723 h -1.35392 l -0.0155,0.0155 z"
         style="stroke-width:0.26458332"
         id="path4552" />
      <path
         d="m 131.43347,-45.964362 v -7.555094 l 0.005,-0.0052 h 4.06177 l 0.005,0.0052 v 0.992187 h -3.07475 v 2.289266 h 2.43396 l 0.005,0.0052 v 0.981852 l -0.005,0.0052 h -2.43396 v 2.289266 h 3.07475 v 0.992187 l -0.005,0.0052 h -4.06177 z"
         style="stroke-width:0.26458332"
         id="path4554" />
    </g>
  </g>
</svg>
