<?xml version="1.0" standalone="no"?>
<!DOCTYPE svg PUBLIC "-//W3C//DTD SVG 20010904//EN"
 "http://www.w3.org/TR/2001/REC-SVG-20010904/DTD/svg10.dtd">
<svg version="1.0" xmlns="http://www.w3.org/2000/svg"
 width="1021.000000pt" height="192.000000pt" viewBox="0 0 1021.000000 192.000000"
 preserveAspectRatio="xMidYMid meet">
<metadata>
Created by potrace 1.15, written by Peter Selinger 2001-2017
</metadata>
<g transform="translate(0.000000,192.000000) scale(0.100000,-0.100000)"
fill="#000000" stroke="none">
<path d="M5910 1000 l0 -660 65 0 65 0 0 373 c0 423 4 452 65 506 67 58 171
36 211 -45 18 -36 19 -68 22 -436 l3 -398 65 0 64 0 0 303 c0 352 -11 513 -40
590 -32 85 -91 127 -195 134 -73 5 -137 -23 -172 -76 l-23 -34 0 202 0 201
-65 0 -65 0 0 -660z"/>
<path d="M208 1627 c-96 -27 -154 -100 -178 -222 -8 -42 -10 -185 -8 -466 l3
-406 35 -69 c28 -55 45 -74 84 -99 47 -29 54 -30 160 -30 104 0 114 2 159 28
80 47 119 133 131 285 l5 72 -64 0 -63 0 -7 -72 c-9 -97 -20 -129 -56 -164
-28 -27 -36 -29 -105 -29 -72 0 -77 1 -104 32 -16 18 -34 49 -39 70 -15 52
-15 794 0 848 23 85 99 127 189 105 81 -19 104 -58 115 -188 l8 -82 63 0 64 0
-5 58 c-3 31 -8 81 -11 109 -6 57 -42 134 -77 164 -70 60 -198 84 -299 56z"/>
<path d="M7380 985 l0 -647 193 4 c173 3 196 5 232 25 90 48 120 103 135 249
22 207 -15 329 -114 381 l-29 15 40 24 c23 13 48 39 57 59 25 52 38 193 27
283 -12 94 -29 137 -73 179 -55 53 -103 64 -295 70 l-173 6 0 -648z m328 511
c70 -36 98 -115 90 -251 -6 -85 -22 -122 -67 -152 -29 -20 -47 -23 -127 -23
l-94 0 0 220 0 220 85 0 c54 0 96 -5 113 -14z m51 -590 c53 -52 65 -100 59
-234 -9 -179 -32 -203 -199 -210 l-109 -5 0 248 0 247 105 -4 104 -3 40 -39z"/>
<path d="M5200 1560 l0 -60 115 0 115 0 0 -580 0 -580 65 0 65 0 0 580 0 580
115 0 115 0 0 60 0 60 -295 0 -295 0 0 -60z"/>
<path d="M906 1355 c-56 -20 -87 -45 -118 -96 -44 -69 -52 -138 -52 -419 0
-340 18 -406 126 -477 34 -23 54 -28 129 -31 145 -7 214 29 265 140 l29 63 0
305 c0 273 -2 311 -19 359 -26 75 -85 137 -149 156 -63 19 -159 19 -211 0z
m195 -131 c12 -10 30 -37 40 -59 17 -36 19 -69 19 -306 0 -368 -11 -400 -138
-407 -57 -3 -71 -1 -95 18 -60 48 -62 57 -62 375 0 270 1 293 20 330 27 54 74
77 142 72 33 -2 61 -11 74 -23z"/>
<path d="M1736 1363 c-17 -3 -50 -26 -82 -58 l-54 -54 0 55 0 54 -60 0 -60 0
0 -510 0 -510 60 0 60 0 0 333 c0 442 10 501 91 555 28 20 44 23 86 20 33 -3
61 -12 74 -24 47 -42 49 -58 49 -484 l0 -400 65 0 65 0 0 362 c0 410 5 450 65
508 26 26 45 34 83 38 66 6 108 -17 133 -71 17 -39 19 -71 19 -439 l0 -398 66
0 66 0 -4 413 c-5 454 -9 483 -69 551 -92 106 -300 78 -366 -48 l-15 -29 -28
50 c-19 34 -41 56 -66 68 -38 18 -127 27 -178 18z"/>
<path d="M2885 1356 c-35 -15 -65 -46 -82 -84 -10 -25 -11 -22 -12 31 l-1 57
-65 0 -65 0 0 -665 0 -665 65 0 65 0 0 208 c1 157 3 202 12 187 18 -33 51 -66
81 -82 34 -17 118 -19 175 -4 46 13 103 70 127 128 41 97 47 630 9 743 -23 68
-84 134 -139 149 -54 15 -133 13 -170 -3z m146 -132 c51 -46 54 -61 57 -341 4
-312 -2 -357 -55 -404 -34 -29 -40 -31 -101 -27 -60 4 -68 7 -94 38 -15 19
-31 50 -35 70 -5 19 -8 157 -8 305 0 299 1 305 67 360 29 24 38 27 90 23 38
-3 64 -11 79 -24z"/>
<path d="M3550 1354 c-89 -32 -145 -111 -155 -222 -3 -32 -8 -69 -10 -84 l-4
-28 63 0 63 0 6 65 c10 108 46 155 125 163 73 7 118 -17 144 -75 29 -63 41
-290 15 -280 -46 17 -146 29 -207 24 -105 -9 -163 -45 -195 -120 -20 -47 -21
-245 -1 -309 32 -107 106 -158 229 -158 87 0 128 21 164 85 l23 40 0 -57 0
-58 60 0 60 0 0 390 c0 458 -4 489 -74 568 -55 63 -209 91 -306 56z m226 -561
l37 -18 -7 -99 c-12 -168 -51 -226 -154 -226 -112 0 -158 62 -150 204 4 81 22
119 69 143 37 19 161 16 205 -4z"/>
<path d="M4386 1360 c-36 -11 -73 -45 -97 -90 l-18 -35 -1 63 0 62 -60 0 -60
0 0 -510 0 -510 59 0 59 0 5 378 c3 249 8 390 16 414 27 85 102 130 183 110
l38 -10 0 63 c0 48 -4 64 -16 69 -21 8 -73 6 -108 -4z"/>
<path d="M4755 1361 c-75 -19 -127 -66 -161 -146 -26 -63 -40 -331 -26 -526 6
-90 17 -182 24 -204 18 -56 94 -131 149 -145 25 -7 81 -10 131 -8 74 4 93 8
135 34 68 42 100 110 109 227 l7 87 -67 0 -66 0 0 -69 c0 -112 -45 -161 -151
-161 -42 0 -63 5 -83 21 -47 37 -59 75 -64 195 -4 110 -4 111 19 117 13 3 111
20 218 39 l193 33 -4 160 c-5 182 -22 240 -84 295 -58 50 -185 74 -279 51z
m171 -130 c49 -30 64 -74 64 -188 l0 -98 -151 -26 -151 -26 4 121 c5 143 22
190 78 218 46 24 117 23 156 -1z"/>
<path d="M6821 1361 c-53 -14 -113 -62 -138 -111 -39 -75 -45 -143 -41 -439 4
-259 5 -280 27 -333 26 -67 84 -123 144 -139 51 -14 155 -13 209 1 102 27 153
106 164 253 l7 87 -67 0 -66 0 0 -66 c0 -120 -40 -164 -148 -164 -108 0 -141
50 -150 221 -5 105 -5 106 19 112 13 3 111 20 218 39 l193 33 -4 165 c-5 177
-12 208 -63 268 -44 52 -97 74 -190 78 -44 2 -95 -1 -114 -5z m177 -131 c48
-29 62 -72 62 -188 l0 -99 -137 -23 c-76 -12 -144 -25 -151 -28 -12 -4 -14 14
-10 114 7 188 42 243 158 244 28 0 57 -8 78 -20z"/>
<path d="M8354 1351 c-28 -13 -50 -33 -68 -62 l-26 -44 0 58 0 57 -65 0 -65 0
0 -510 0 -510 64 0 65 0 3 388 c3 372 4 389 25 434 11 25 33 54 47 63 29 19
94 25 139 12 l27 -7 0 64 c0 58 -2 64 -22 70 -40 10 -82 6 -124 -13z"/>
<path d="M8720 1354 c-25 -9 -60 -30 -78 -47 -81 -76 -95 -159 -90 -501 4
-218 8 -269 23 -311 40 -113 117 -165 243 -165 98 0 153 15 200 56 47 40 71
94 78 177 3 34 7 74 9 90 l5 27 -64 0 -63 0 -6 -71 c-10 -118 -47 -159 -145
-159 -116 0 -151 52 -152 222 0 93 2 107 18 112 9 2 106 19 216 38 l199 33 -7
147 c-10 218 -38 290 -129 337 -63 32 -189 39 -257 15z m186 -120 c53 -25 67
-63 72 -184 l4 -105 -143 -24 c-79 -13 -149 -26 -155 -28 -13 -5 -7 207 7 254
13 40 45 82 73 93 35 14 106 11 142 -6z"/>
<path d="M9203 1328 c2 -18 38 -248 78 -510 l74 -478 102 0 c98 0 103 1 108
23 2 12 30 200 60 417 30 217 58 406 62 420 5 21 56 -302 123 -772 l12 -88
103 0 102 0 17 108 c100 638 136 871 136 890 0 20 -4 22 -60 22 -54 0 -60 -2
-65 -22 -2 -13 -32 -214 -66 -448 -33 -234 -62 -427 -64 -429 -2 -2 -6 7 -9
20 -7 29 -126 850 -126 867 0 8 -30 12 -97 12 l-98 0 -54 -383 c-72 -513 -72
-517 -80 -517 -3 0 -35 203 -70 450 l-64 450 -65 0 -65 0 6 -32z"/>
</g>
</svg>
